<?xml version="1.0" encoding="UTF-8"?><svg id="Layer_1" xmlns="http://www.w3.org/2000/svg" xmlns:xlink="http://www.w3.org/1999/xlink" viewBox="0 0 421.64 105.96"><defs><style>.cls-1{fill:url(#linear-gradient);}</style><linearGradient id="linear-gradient" x1="49.16" y1="141.57" x2="382.62" y2="-50.95" gradientUnits="userSpaceOnUse"><stop offset="0" stop-color="#f9c5dc"/><stop offset="1" stop-color="#da92a7"/></linearGradient></defs><path class="cls-1" d="M7.5,7.5H126.2m7.5,0c0-4.14-3.36-7.5-7.5-7.5H7.5C3.36,0,0,3.36,0,7.5s3.36,7.5,7.5,7.5H126.2c4.14,0,7.5-3.36,7.5-7.5Zm-32.93,90.96V7.5m7.5,90.96V7.5c0-4.14-3.36-7.5-7.5-7.5s-7.5,3.36-7.5,7.5V98.46c0,4.14,3.36,7.5,7.5,7.5s7.5-3.36,7.5-7.5Zm-75.33,0V7.5m7.5,90.96V7.5c0-4.14-3.36-7.5-7.5-7.5s-7.5,3.36-7.5,7.5V98.46c0,4.14,3.36,7.5,7.5,7.5s7.5-3.36,7.5-7.5Zm-7.5-67.9H100.76m7.5,0c0-4.14-3.36-7.5-7.5-7.5H32.94c-4.14,0-7.5,3.36-7.5,7.5s3.36,7.5,7.5,7.5H100.76c4.14,0,7.5-3.36,7.5-7.5Zm60.23-9.61v29.09L201.49,15.63c1.58-1.66,2.93-2.89,4.05-3.68,1.11-.79,2.59-1.19,4.44-1.19,2.41,0,4.37,.71,5.86,2.12,1.49,1.41,2.24,3.14,2.24,5.18,0,2.45-1.26,4.89-3.79,7.3l-20.43,19.35,23.54,33.73c1.66,2.34,2.9,4.39,3.74,6.14,.83,1.75,1.24,3.46,1.24,5.12,0,1.85-.73,3.45-2.18,4.81-1.45,1.36-3.42,2.04-5.91,2.04-2.34,0-4.24-.5-5.72-1.5-1.47-1-2.72-2.33-3.74-3.99-1.02-1.66-1.92-3.17-2.72-4.53l-19.86-30.56-13.75,13.19v17.15c0,3.47-.79,6.05-2.38,7.72-1.58,1.68-3.62,2.52-6.11,2.52-1.43,0-2.81-.38-4.13-1.13-1.32-.75-2.34-1.77-3.06-3.06-.53-1.06-.85-2.28-.96-3.68-.11-1.4-.17-3.41-.17-6.06V20.95c0-3.4,.74-5.94,2.24-7.64,1.49-1.7,3.52-2.55,6.08-2.55s4.57,.84,6.14,2.52c1.57,1.68,2.35,4.24,2.35,7.67Zm105.32,66.89c-3.73,2.91-7.35,5.08-10.84,6.54-3.49,1.45-7.41,2.18-11.74,2.18-3.96,0-7.44-.78-10.44-2.35-3-1.56-5.31-3.69-6.93-6.37-1.62-2.68-2.43-5.58-2.43-8.72,0-4.22,1.34-7.83,4.02-10.81,2.68-2.98,6.36-4.98,11.04-6,.98-.23,3.41-.74,7.3-1.53,3.89-.79,7.22-1.52,9.99-2.18,2.77-.66,5.78-1.46,9.03-2.4-.19-4.07-1.01-7.06-2.46-8.97-1.45-1.9-4.46-2.86-9.03-2.86-3.92,0-6.88,.55-8.86,1.64-1.98,1.1-3.68,2.74-5.09,4.92s-2.41,3.63-3,4.33c-.59,.7-1.84,1.05-3.76,1.05-1.74,0-3.24-.56-4.5-1.67-1.26-1.11-1.9-2.54-1.9-4.27,0-2.72,.96-5.36,2.89-7.92,1.92-2.57,4.92-4.68,9-6.34s9.15-2.49,15.22-2.49c6.79,0,12.13,.8,16.01,2.4,3.89,1.6,6.63,4.14,8.23,7.61,1.6,3.47,2.4,8.07,2.4,13.81,0,3.62,0,6.7-.03,9.22-.02,2.53-.05,5.34-.08,8.43,0,2.91,.48,5.93,1.44,9.08,.96,3.15,1.44,5.18,1.44,6.08,0,1.58-.74,3.03-2.24,4.33s-3.18,1.95-5.06,1.95c-1.59,0-3.15-.75-4.7-2.24-1.55-1.49-3.19-3.65-4.92-6.48Zm-1.02-22.35c-2.26,.83-5.56,1.71-9.88,2.63-4.32,.92-7.31,1.6-8.97,2.04-1.66,.43-3.25,1.28-4.75,2.55-1.51,1.26-2.26,3.03-2.26,5.29s.89,4.33,2.66,5.97c1.77,1.64,4.09,2.46,6.96,2.46,3.06,0,5.88-.67,8.46-2.01,2.58-1.34,4.48-3.06,5.69-5.18,1.39-2.34,2.09-6.19,2.09-11.54v-2.21Zm82.23,.79v20.54c0,3.25-.74,5.68-2.21,7.3-1.47,1.62-3.42,2.43-5.83,2.43s-4.24-.81-5.69-2.43c-1.45-1.62-2.18-4.06-2.18-7.3v-24.62c0-3.89-.13-6.9-.4-9.06-.26-2.15-.98-3.91-2.15-5.29-1.17-1.38-3.02-2.07-5.55-2.07-5.06,0-8.38,1.74-9.99,5.21-1.6,3.47-2.41,8.45-2.41,14.94v20.88c0,3.21-.73,5.63-2.18,7.27-1.45,1.64-3.37,2.46-5.74,2.46s-4.25-.82-5.74-2.46c-1.49-1.64-2.24-4.07-2.24-7.27V42.62c0-2.9,.67-5.11,2.01-6.62s3.1-2.26,5.29-2.26,3.88,.71,5.29,2.12c1.41,1.42,2.12,3.37,2.12,5.86v1.47c2.68-3.21,5.55-5.57,8.6-7.07,3.06-1.51,6.45-2.26,10.19-2.26s7.22,.77,10.02,2.32c2.79,1.55,5.09,3.89,6.9,7.02,2.6-3.17,5.39-5.52,8.38-7.05,2.98-1.53,6.28-2.29,9.9-2.29,4.23,0,7.87,.83,10.92,2.49,3.06,1.66,5.34,4.04,6.85,7.13,1.32,2.79,1.98,7.19,1.98,13.19v30.16c0,3.25-.74,5.68-2.21,7.3-1.47,1.62-3.42,2.43-5.83,2.43s-4.25-.82-5.74-2.46c-1.49-1.64-2.24-4.07-2.24-7.27v-25.98c0-3.32-.14-5.98-.42-7.98-.28-2-1.05-3.68-2.29-5.04s-3.13-2.04-5.66-2.04c-2.04,0-3.97,.6-5.8,1.81-1.83,1.21-3.25,2.83-4.27,4.87-1.13,2.6-1.7,7.21-1.7,13.81Zm58.97-39.73c-2.15,0-3.99-.66-5.52-1.98-1.53-1.32-2.29-3.19-2.29-5.6,0-2.19,.78-3.99,2.35-5.4,1.56-1.41,3.39-2.12,5.46-2.12s3.77,.64,5.32,1.92c1.55,1.28,2.32,3.15,2.32,5.6s-.76,4.24-2.26,5.57-3.3,2.01-5.38,2.01Zm7.64,15.96v44.65c0,3.09-.74,5.43-2.21,7.02s-3.34,2.38-5.6,2.38-4.1-.81-5.52-2.43c-1.42-1.62-2.12-3.94-2.12-6.96V42.96c0-3.06,.71-5.36,2.12-6.9,1.41-1.55,3.25-2.32,5.52-2.32s4.13,.77,5.6,2.32c1.47,1.55,2.21,3.7,2.21,6.45Z"/></svg>