<?xml version="1.0" encoding="UTF-8"?><svg id="Layer_1" xmlns="http://www.w3.org/2000/svg" xmlns:xlink="http://www.w3.org/1999/xlink" viewBox="0 0 409.4 105.96"><defs><style>.cls-1{fill:url(#linear-gradient);}</style><linearGradient id="linear-gradient" x1="136.92" y1="-75.88" x2="282.07" y2="175.52" gradientUnits="userSpaceOnUse"><stop offset="0" stop-color="#f6aacb"/><stop offset="1" stop-color="#d34f9d"/></linearGradient></defs><path class="cls-1" d="M7.5,7.5H126.2m7.5,0c0-4.14-3.36-7.5-7.5-7.5H7.5C3.36,0,0,3.36,0,7.5s3.36,7.5,7.5,7.5H126.2c4.14,0,7.5-3.36,7.5-7.5Zm-32.93,90.96V7.5m7.5,90.96V7.5c0-4.14-3.36-7.5-7.5-7.5s-7.5,3.36-7.5,7.5V98.46c0,4.14,3.36,7.5,7.5,7.5s7.5-3.36,7.5-7.5Zm-75.33,0V7.5m7.5,90.96V7.5c0-4.14-3.36-7.5-7.5-7.5s-7.5,3.36-7.5,7.5V98.46c0,4.14,3.36,7.5,7.5,7.5s7.5-3.36,7.5-7.5Zm-7.5-60.4H100.76m7.5,0c0-4.14-3.36-7.5-7.5-7.5H32.94c-4.14,0-7.5,3.36-7.5,7.5s3.36,7.5,7.5,7.5H100.76c4.14,0,7.5-3.36,7.5-7.5Zm155.78,58.57c-3.67,2.86-7.23,5-10.66,6.43-3.43,1.43-7.28,2.14-11.55,2.14-3.9,0-7.32-.77-10.27-2.31-2.95-1.54-5.22-3.63-6.82-6.26-1.6-2.63-2.39-5.49-2.39-8.57,0-4.15,1.32-7.7,3.95-10.63,2.63-2.93,6.25-4.9,10.85-5.9,.96-.22,3.36-.72,7.18-1.5,3.82-.78,7.1-1.49,9.82-2.14,2.73-.65,5.68-1.44,8.88-2.36-.19-4.01-.99-6.95-2.42-8.82-1.43-1.87-4.39-2.81-8.88-2.81-3.86,0-6.76,.54-8.71,1.61-1.95,1.08-3.62,2.69-5.01,4.84s-2.37,3.57-2.95,4.26c-.58,.69-1.81,1.03-3.7,1.03-1.71,0-3.18-.55-4.42-1.64-1.24-1.09-1.86-2.49-1.86-4.2,0-2.67,.95-5.27,2.84-7.79,1.89-2.52,4.84-4.6,8.85-6.23,4.01-1.63,9-2.45,14.97-2.45,6.68,0,11.93,.79,15.75,2.36,3.82,1.58,6.52,4.07,8.1,7.49,1.58,3.41,2.36,7.94,2.36,13.58,0,3.56,0,6.59-.03,9.07-.02,2.49-.05,5.25-.08,8.29,0,2.86,.47,5.83,1.42,8.93,.95,3.1,1.42,5.09,1.42,5.98,0,1.56-.73,2.98-2.2,4.26s-3.13,1.92-4.98,1.92c-1.56,0-3.1-.73-4.62-2.2-1.52-1.47-3.14-3.59-4.84-6.37Zm-1-21.98c-2.23,.82-5.46,1.68-9.71,2.59-4.25,.91-7.19,1.58-8.82,2-1.63,.43-3.19,1.26-4.67,2.5-1.48,1.24-2.23,2.98-2.23,5.2s.87,4.26,2.62,5.87c1.74,1.61,4.03,2.42,6.85,2.42,3,0,5.78-.66,8.32-1.98,2.54-1.32,4.4-3.01,5.59-5.09,1.37-2.3,2.06-6.08,2.06-11.35v-2.17Zm80.86,.78v20.2c0,3.19-.72,5.58-2.17,7.18-1.45,1.59-3.36,2.39-5.73,2.39s-4.17-.8-5.59-2.39c-1.43-1.59-2.14-3.99-2.14-7.18v-24.21c0-3.82-.13-6.79-.39-8.9-.26-2.11-.97-3.85-2.11-5.2-1.15-1.35-2.97-2.03-5.45-2.03-4.97,0-8.24,1.71-9.82,5.12-1.58,3.41-2.37,8.31-2.37,14.69v20.53c0,3.15-.71,5.54-2.14,7.15-1.43,1.61-3.31,2.42-5.65,2.42s-4.18-.81-5.65-2.42c-1.47-1.61-2.2-4-2.2-7.15V52.17c0-2.86,.66-5.03,1.98-6.51s3.05-2.23,5.2-2.23,3.81,.7,5.2,2.09c1.39,1.39,2.09,3.31,2.09,5.76v1.45c2.63-3.15,5.45-5.47,8.46-6.96,3.01-1.48,6.34-2.23,10.02-2.23s7.1,.76,9.85,2.28c2.75,1.52,5.01,3.82,6.79,6.9,2.56-3.12,5.3-5.43,8.24-6.93,2.93-1.5,6.18-2.25,9.74-2.25,4.16,0,7.74,.82,10.74,2.45,3.01,1.63,5.25,3.97,6.73,7.01,1.3,2.75,1.95,7.07,1.95,12.97v29.66c0,3.19-.72,5.58-2.17,7.18-1.45,1.59-3.36,2.39-5.73,2.39s-4.18-.81-5.65-2.42c-1.47-1.61-2.2-4-2.2-7.15v-25.54c0-3.26-.14-5.88-.42-7.85-.28-1.97-1.03-3.62-2.25-4.95s-3.08-2-5.57-2c-2,0-3.9,.59-5.7,1.78-1.8,1.19-3.2,2.78-4.2,4.79-1.11,2.56-1.67,7.09-1.67,13.58Zm57.99-39.07c-2.11,0-3.92-.65-5.43-1.95-1.5-1.3-2.25-3.13-2.25-5.51,0-2.15,.77-3.92,2.31-5.31,1.54-1.39,3.33-2.09,5.37-2.09s3.71,.63,5.23,1.89c1.52,1.26,2.28,3.1,2.28,5.51s-.74,4.17-2.23,5.48-3.25,1.98-5.29,1.98Zm7.51,15.69v43.91c0,3.04-.72,5.34-2.17,6.9s-3.28,2.34-5.51,2.34-4.04-.8-5.43-2.39c-1.39-1.59-2.09-3.88-2.09-6.85V52.5c0-3,.7-5.27,2.09-6.79,1.39-1.52,3.2-2.28,5.43-2.28s4.06,.76,5.51,2.28c1.45,1.52,2.17,3.64,2.17,6.34Zm-213.74,45.68l-14.4-23.67-8.85,8.37v12.97c0,3.15-.83,5.57-2.48,7.26-1.65,1.69-3.56,2.54-5.71,2.54-2.51,0-4.48-.84-5.92-2.51-1.43-1.67-2.15-4.14-2.15-7.41V25.71c0-3.63,.7-6.39,2.09-8.28,1.39-1.89,3.39-2.84,5.98-2.84s4.5,.86,5.98,2.57c1.47,1.71,2.21,4.24,2.21,7.59v39.57l18.35-19.25c2.27-2.39,4-4.02,5.2-4.9,1.2-.88,2.65-1.32,4.36-1.32,2.03,0,3.73,.65,5.08,1.94,1.35,1.3,2.03,2.92,2.03,4.87,0,2.39-2.21,5.58-6.63,9.56l-8.67,7.95,16.74,26.3c1.23,1.95,2.12,3.44,2.66,4.45,.54,1.02,.81,1.98,.81,2.9,0,2.59-.71,4.63-2.12,6.13-1.42,1.49-3.28,2.24-5.59,2.24-1.99,0-3.53-.54-4.6-1.61-1.08-1.08-2.53-3.03-4.36-5.86Z"/></svg>